<svg id="Layer_1" data-name="Layer 1" xmlns="http://www.w3.org/2000/svg" viewBox="0 0 558.97 369.49"><defs><style>.cls-1{fill:#115358;}.cls-2{fill:#00a99d;}.cls-3{fill:#24b574;}.cls-4{fill:#8dc641;}</style></defs><title>AT-Syllabus-Icon-600x403-20pxBorder</title><path class="cls-1" d="M472.34,221.41,301.23,301.66a4.35,4.35,0,0,1-3.73,0l-168.62-79.5a4.37,4.37,0,0,0-6.24,4v75.31a4.4,4.4,0,0,0,2.51,4l174.31,82.19a4.36,4.36,0,0,0,3.75,0l172.87-82.18a4.37,4.37,0,0,0,2.5-3.95V225.37a4.38,4.38,0,0,0-6.24-4" transform="translate(-21.03 -18.51)"/><path class="cls-1" d="M577.49,148,305,19.39a9.22,9.22,0,0,0-7.85,0l-273.61,128a4.38,4.38,0,0,0,0,7.92L296,283.89a9.22,9.22,0,0,0,7.85,0l185-86.55v94.87a4.37,4.37,0,0,0,6.23,4l14.5-6.79a4.37,4.37,0,0,0,2.51-4v-99l65.36-30.57a4.38,4.38,0,0,0,0-7.92" transform="translate(-21.03 -18.51)"/><path class="cls-2" d="M264.67,227.45a9.5,9.5,0,0,1-4-18.12l200.54-93.46a9.5,9.5,0,1,1,8,17.23L268.68,226.56a9.39,9.39,0,0,1-4,.89" transform="translate(-21.03 -18.51)"/><path class="cls-3" d="M210.8,194.71a9.5,9.5,0,0,1-4-18.11l189.76-89a9.5,9.5,0,0,1,8.07,17.21L214.84,193.81a9.53,9.53,0,0,1-4,.9" transform="translate(-21.03 -18.51)"/><path class="cls-4" d="M145.32,167.25a9.51,9.51,0,0,1-4-18.12l185.51-87a9.51,9.51,0,0,1,8.07,17.22l-185.5,87a9.52,9.52,0,0,1-4,.9" transform="translate(-21.03 -18.51)"/></svg>