<svg id="Layer_1" data-name="Layer 1" xmlns="http://www.w3.org/2000/svg" viewBox="0 0 512 512"><defs><style>.cls-1{fill:#fff;}</style></defs><title>mysyllabi_icon_512</title><path class="cls-1" d="M442.21,213.08,388.59,141l1.71-46.37a11.1,11.1,0,0,0-2.91-7.9,10.84,10.84,0,0,0-7.58-3.51L142,74.3a10.88,10.88,0,0,0-11.3,10.59L118.59,414a11,11,0,0,0,10.49,11.4l23.58.89-2.52,17.72a11,11,0,0,0,9.24,12.46L395,490.69a11.54,11.54,0,0,0,1.55.11,10.86,10.86,0,0,0,6.53-2.2,11.07,11.07,0,0,0,4.26-7.24l37-260.11A11.07,11.07,0,0,0,442.21,213.08Zm-20.5,12-61.85-9,8.82-62,2.71.39,50.67,68.12ZM155.78,404.42l-15-.57L152.07,96.7l216,8.11-1,26.84-158.28-23a10.8,10.8,0,0,0-8.09,2.09,11,11,0,0,0-4.25,7.25Zm231.48,62.91-214-31.05L216.53,132,347.1,151l-10.36,72.89A11,11,0,0,0,346,236.34l72.63,10.53Z"/><path class="cls-1" d="M379.43,275.36,234.28,254.3a6.61,6.61,0,0,0-1.86,13.08l145.15,21.06a7.26,7.26,0,0,0,.93.06,6.61,6.61,0,0,0,.93-13.14Z"/><path class="cls-1" d="M371.85,328.63,226.71,307.57a6.61,6.61,0,0,0-1.86,13.08L370,341.71a7.54,7.54,0,0,0,.94.06,6.61,6.61,0,0,0,.92-13.14Z"/><path class="cls-1" d="M364.27,381.9,219.13,360.84a6.61,6.61,0,0,0-1.86,13.08L362.41,395a7.54,7.54,0,0,0,.94.06,6.61,6.61,0,0,0,.92-13.14Z"/><path class="cls-1" d="M120.3,364.94l-9.41.67L89.36,59,305,43.57l3,37.68,21.91.82L326,31a10.91,10.91,0,0,0-11.64-10.2l-237.39,17A11,11,0,0,0,66.85,49.6L89.92,378.15a11,11,0,0,0,10.86,10.23l.78,0,17.92-1.29Z"/></svg>