<svg id="Layer_1" data-name="Layer 1" xmlns="http://www.w3.org/2000/svg" viewBox="0 0 512 512"><defs><style>.cls-1{fill:#fff;}</style></defs><title>organizations_icon_512</title><path class="cls-1" d="M485.48,306.14H431.09V257.92A14.94,14.94,0,0,0,416.15,243H271.21V206H325.1a23.58,23.58,0,0,0,23.55-23.55V44.8A23.58,23.58,0,0,0,325.1,21.25H187.45A23.57,23.57,0,0,0,163.9,44.8V182.45A23.57,23.57,0,0,0,187.45,206h53.88v37H96.39a14.94,14.94,0,0,0-14.94,14.94v48.22H27.07A23.58,23.58,0,0,0,3.52,329.69V467.34A23.59,23.59,0,0,0,27.07,490.9H164.72a23.58,23.58,0,0,0,23.55-23.56V329.69a23.57,23.57,0,0,0-23.55-23.55H111.34V272.87H401.21v33.27H347.82a23.58,23.58,0,0,0-23.55,23.55V467.34a23.59,23.59,0,0,0,23.55,23.56H485.48A23.59,23.59,0,0,0,509,467.34V329.69A23.58,23.58,0,0,0,485.48,306.14Zm-291.7-255h125v125h-125ZM158.39,461H33.4V336h59a13.43,13.43,0,0,0,7.94,0h58Zm320.75,0h-125V336h58a13.43,13.43,0,0,0,7.94,0h59Z"/></svg>